<?xml version="1.0" encoding="UTF-8"?>
<!DOCTYPE svg PUBLIC "-//W3C//DTD SVG 1.1//EN" "http://www.w3.org/Graphics/SVG/1.1/DTD/svg11.dtd">
<svg xmlns="http://www.w3.org/2000/svg" version="1.1" width="14px" height="16px" style="shape-rendering:geometricPrecision; text-rendering:geometricPrecision; image-rendering:optimizeQuality; fill-rule:evenodd; clip-rule:evenodd" xmlns:xlink="http://www.w3.org/1999/xlink">
<g><path style="opacity:0.437" fill="#000000" d="M 4.5,-0.5 C 5.5,-0.5 6.5,-0.5 7.5,-0.5C 9.38163,1.30988 11.3816,2.97655 13.5,4.5C 13.5,7.5 13.5,10.5 13.5,13.5C 12.6618,13.8417 12.3284,14.5084 12.5,15.5C 8.5,15.5 4.5,15.5 0.5,15.5C 0.5,14.8333 0.166667,14.5 -0.5,14.5C -0.5,10.8333 -0.5,7.16667 -0.5,3.5C 1.75398,2.8763 3.42065,1.54297 4.5,-0.5 Z M 1.5,4.5 C 4.51838,4.33537 7.51838,4.50204 10.5,5C 11.8333,7.66667 11.8333,10.3333 10.5,13C 7.51838,13.498 4.51838,13.6646 1.5,13.5C 1.5,10.5 1.5,7.5 1.5,4.5 Z"/></g>
</svg>
